{"title":"24: Redemption 2008 [x264][AC3(5.1)] Multi_Sub.mkv","uid":5372706,"size":1476917353,"categoryP":"video","categoryS":"movies","magnet":"?xt=urn:btih:c7449aea0cf0d60c08c9e6e2d9beaf5736ab0d0a&amp;dn=24%3A+Redemption+2008+%5Bx264%5D%5BAC3%285.1%29%5D+Multi_Sub.mkv&amp;tr=udp%3A%2F%2Ftracker.openbittorrent.com%3A80&amp;tr=udp%3A%2F%2Fopen.demonii.com%3A1337&amp;tr=udp%3A%2F%2Ftracker.coppersurfer.tk%3A6969&amp;tr=udp%3A%2F%2Fexodus.desync.com%3A6969","seeders":0,"leechers":1,"uploader":"Zen_Bud","files":-1,"time":1266482976,"description":"General\nComplete name                    : 24_ Redemption(2008).mkv\nFormat                           : Matroska\nFile size                        : 1.38 GiB\nDuration                         : 1h 23mn\nOverall bit rate                 : 2 361 Kbps\n\n\nVideo\nID                               : 1\nFormat                           : AVC\nDuration                         : 1h 23mn\nBit rate                         : 1 866 Kbps\nWidth                            : 720 pixels\nHeight                           : 576 pixels\nDisplay aspect ratio             : 16:9\nFrame rate                       : 25.000 fps\nResolution                       : 8 bits\nColorimetry                      : 4:2:0\nScan type                        : Progressive\nBits/(Pixel*Frame)               : 0.180\nStream size                      : 1.09 GiB (79%)\nWriting library                  : x264 core 79\n\n\nAudio\nID                               : 2\nFormat                           : AC-3\nFormat/Info                      : Audio Coding 3\nCodec ID                         : A_AC3\nDuration                         : 1h 23mn\nBit rate mode                    : Constant\nBit rate                         : 448 Kbps\nChannel(s)                       : 6 channels\nChannel positions                : Front: L C R, Surround: L R, LFE\nSampling rate                    : 48.0 KHz\nStream size                      : 267 MiB (19%)\nLanguage                         : English\n\nText #1\nLanguage                         : Danish\n\nText #2\nLanguage                         : English\n\nText #3\nLanguage                         : Finnish\n\nText #4\nLanguage                         : Greek\n\nText #5\nLanguage                         : Norwegian\n\nText #6\nLanguage                         : Swedish\n\n","torrent":{"xt":"urn:btih:c7449aea0cf0d60c08c9e6e2d9beaf5736ab0d0a","amp;dn":"24%3A+Redemption+2008+%5Bx264%5D%5BAC3%285.1%29%5D+Multi_Sub.mkv","amp;tr":["udp%3A%2F%2Ftracker.openbittorrent.com%3A80","udp%3A%2F%2Fopen.demonii.com%3A1337","udp%3A%2F%2Ftracker.coppersurfer.tk%3A6969","udp%3A%2F%2Fexodus.desync.com%3A6969"],"infoHash":"c7449aea0cf0d60c08c9e6e2d9beaf5736ab0d0a","infoHashBuffer":{"type":"Buffer","data":[199,68,154,234,12,240,214,12,8,201,230,226,217,190,175,87,54,171,13,10]},"announce":[],"urlList":[]}}